<?xml version="1.0" encoding="utf-8"?>
<!-- Generator: Adobe Illustrator 16.0.0, SVG Export Plug-In . SVG Version: 6.00 Build 0)  -->
<!DOCTYPE svg PUBLIC "-//W3C//DTD SVG 1.1//EN" "http://www.w3.org/Graphics/SVG/1.1/DTD/svg11.dtd">
<svg version="1.1" id="Layer_1" xmlns="http://www.w3.org/2000/svg" xmlns:xlink="http://www.w3.org/1999/xlink" x="0px" y="0px"
	 width="612px" height="216px" viewBox="0 0 612 216" enable-background="new 0 0 612 216" xml:space="preserve">
<g>
	<path fill="#FFFFFF" stroke="#000000" stroke-width="3" stroke-miterlimit="10" d="M46.964,106.124v72.259H40.55V65.98h6.414
		v32.115h19.241V65.98h6.414v112.403h-6.414v-72.259H46.964z"/>
	<path fill="#FFFFFF" stroke="#000000" stroke-width="3" stroke-miterlimit="10" d="M85.511,154.296l-3.464,24.087h-6.478
		L91.797,65.98h6.542l16.227,112.403h-6.478l-3.463-24.087H85.511z M95.067,88.219l-8.402,58.047h16.804L95.067,88.219z"/>
	<path fill="#FFFFFF" stroke="#000000" stroke-width="3" stroke-miterlimit="10" d="M117.516,65.98h6.414v92.33
		c0,8.03,3.207,12.045,9.621,12.045c6.414,0,9.621-4.015,9.621-12.045V65.98h6.414v92.33c0,13.383-5.346,20.073-16.035,20.073
		c-10.69,0-16.035-6.69-16.035-20.073V65.98z"/>
	<path fill="#FFFFFF" stroke="#000000" stroke-width="3" stroke-miterlimit="10" d="M155.999,98.095
		c0-21.409,8.552-32.115,25.655-32.115v8.029c-12.828,0-19.241,8.029-19.241,24.086c0,5.353,3.207,12.713,9.62,22.079
		c6.414,9.366,9.621,18.064,9.621,26.093c0,21.411-8.553,32.116-25.655,32.116v-8.028c12.828,0,19.242-8.03,19.242-24.088
		c0-5.351-3.208-12.712-9.621-22.078C159.205,114.822,155.999,106.124,155.999,98.095z"/>
	<path fill="#FFFFFF" stroke="#000000" stroke-width="3" stroke-miterlimit="10" d="M232.964,158.31
		c0,13.383-5.346,20.073-16.035,20.073h-16.034V65.98h16.034c10.689,0,16.035,6.692,16.035,20.072V158.31z M226.55,86.052
		c0-8.029-3.207-12.043-9.621-12.043h-9.62v96.346h9.62c6.414,0,9.621-4.015,9.621-12.045V86.052z"/>
	<path fill="#FFFFFF" stroke="#000000" stroke-width="3" stroke-miterlimit="10" d="M239.378,65.98h6.414v92.33
		c0,8.03,3.207,12.045,9.621,12.045c6.414,0,9.621-4.015,9.621-12.045V65.98h6.414v92.33c0,13.383-5.346,20.073-16.035,20.073
		c-10.69,0-16.035-6.69-16.035-20.073V65.98z"/>
	<path fill="#FFFFFF" stroke="#000000" stroke-width="3" stroke-miterlimit="10" d="M284.275,81.957v96.426h-6.414V65.98h6.414
		l19.241,41.348V65.98h6.414v112.403h-6.414v-55.078L284.275,81.957z"/>
	<path fill="#FFFFFF" stroke="#000000" stroke-width="3" stroke-miterlimit="10" d="M316.344,86.052
		c0-13.38,5.344-20.072,16.035-20.072c10.688,0,16.033,6.692,16.033,20.072v4.014h-6.414v-4.014c0-8.029-3.207-12.043-9.619-12.043
		c-6.415,0-9.622,4.014-9.622,12.043v72.258c0,8.03,3.207,12.045,9.622,12.045c6.412,0,9.619-4.015,9.619-12.045v-4.014h6.414v4.014
		c0,13.383-5.346,20.073-16.033,20.073c-10.691,0-16.035-6.69-16.035-20.073V86.052z"/>
	<path fill="#FFFFFF" stroke="#000000" stroke-width="3" stroke-miterlimit="10" d="M361.305,154.296l-3.465,24.087h-6.479
		L367.59,65.98h6.541l16.227,112.403h-6.477l-3.465-24.087H361.305z M370.861,88.219l-8.402,58.047h16.803L370.861,88.219z"/>
	<path fill="#FFFFFF" stroke="#000000" stroke-width="3" stroke-miterlimit="10" d="M399.723,81.957v96.426h-6.414V65.98h6.414
		l19.242,41.348V65.98h6.412v112.403h-6.412v-55.078L399.723,81.957z"/>
	<path fill="#FFFFFF" stroke="#000000" stroke-width="3" stroke-miterlimit="10" d="M463.861,74.009v104.374h-6.414V74.009h-12.828
		V65.98h32.068v8.029H463.861z"/>
	<path fill="#FFFFFF" stroke="#000000" stroke-width="3" stroke-miterlimit="10" d="M508.758,65.98v8.029h-19.242v24.086h19.242
		v8.029h-19.242v64.231h19.242v8.028h-25.654V65.98H508.758z"/>
	<path fill="#FFFFFF" stroke="#000000" stroke-width="3" stroke-miterlimit="10" d="M515.172,86.052
		c0-13.38,5.344-20.072,16.035-20.072c10.688,0,16.033,6.692,16.033,20.072v4.014h-6.414v-4.014c0-8.029-3.207-12.043-9.619-12.043
		c-6.416,0-9.623,4.014-9.623,12.043v72.258c0,8.03,3.207,12.045,9.623,12.045c6.412,0,9.619-4.015,9.619-12.045v-4.014h6.414v4.014
		c0,13.383-5.346,20.073-16.033,20.073c-10.691,0-16.035-6.69-16.035-20.073V86.052z"/>
	<path fill="#FFFFFF" stroke="#000000" stroke-width="3" stroke-miterlimit="10" d="M560.066,106.124v72.259h-6.412V65.98h6.412
		v32.115h19.242V65.98h6.414v112.403h-6.414v-72.259H560.066z"/>
</g>
</svg>
