<?xml version="1.0" encoding="utf-8"?>
<!-- Generator: Adobe Illustrator 16.0.0, SVG Export Plug-In . SVG Version: 6.00 Build 0)  -->
<!DOCTYPE svg PUBLIC "-//W3C//DTD SVG 1.1//EN" "http://www.w3.org/Graphics/SVG/1.1/DTD/svg11.dtd">
<svg version="1.1" id="Layer_1" xmlns="http://www.w3.org/2000/svg" xmlns:xlink="http://www.w3.org/1999/xlink" x="0px" y="0px"
	 width="316px" height="160px" viewBox="150 133.5 316 160" enable-background="new 150 133.5 316 160" xml:space="preserve">
<g>
	<path stroke="#FFFFFF" stroke-width="5" stroke-miterlimit="10" d="M438.27,138.006c1.136-0.188,2.457-0.328,3.906-0.328
		c2.623,0,4.491,0.656,5.73,1.944c1.278,1.289,2.016,3.139,2.016,5.691c0,2.578-0.734,4.688-2.035,6.141
		c-1.345,1.475-3.526,2.271-6.278,2.271c-1.319,0-2.395-0.047-3.339-0.188V138.006L438.27,138.006z M440.117,151.992
		c0.463,0.094,1.135,0.094,1.848,0.094c3.906,0.023,6.026-2.438,6.026-6.7c0.021-3.771-1.868-6.092-5.731-6.092
		c-0.944,0-1.658,0.094-2.143,0.211V151.992z"/>
	<path stroke="#FFFFFF" stroke-width="5" stroke-miterlimit="10" d="M440.316,161.227v9.371c0,3.516,1.405,5.016,3.297,5.016
		c2.078,0,3.442-1.548,3.442-5.016v-9.371h1.849v9.23c0,4.849-2.289,6.815-5.354,6.815c-2.896,0-5.081-1.823-5.081-6.746v-9.301
		L440.316,161.227L440.316,161.227z"/>
	<path stroke="#FFFFFF" stroke-width="5" stroke-miterlimit="10" d="M438.375,200.451V184.66h2.016l4.519,7.986
		c1.024,1.854,1.865,3.492,2.52,5.134l0.063-0.021c-0.169-2.111-0.212-4.031-0.212-6.467v-6.631h1.725v15.791h-1.85l-4.491-8.016
		c-0.986-1.758-1.936-3.562-2.625-5.271l-0.063,0.021c0.104,1.99,0.127,3.891,0.127,6.516v6.748h-1.725L438.375,200.451
		L438.375,200.451z"/>
	<path stroke="#FFFFFF" stroke-width="5" stroke-miterlimit="10" d="M449.063,223.391c-0.646,0.375-2.018,0.75-3.733,0.75
		c-3.989,0-6.976-2.813-6.976-8.012c0-4.967,3.005-8.295,7.396-8.295c1.743,0,2.876,0.422,3.354,0.705l-0.461,1.662
		c-0.672-0.375-1.659-0.656-2.834-0.656c-3.314,0-5.521,2.367-5.521,6.514c0,3.893,1.995,6.354,5.417,6.354
		c1.134,0,2.27-0.264,3.002-0.656L449.063,223.391z"/>
	<path stroke="#FFFFFF" stroke-width="5" stroke-miterlimit="10" d="M441.432,241.137l-1.47,4.967h-1.892l4.81-15.791h2.204
		l4.661,15.791h-2.333l-0.549-5.687L441.432,241.137z M445.789,238.631l-1.406-4.546c-0.013-0.118-0.222-1.057-0.433-1.971h-0.063
		c-0.188,0.914-0.42,1.896-0.692,2.856l-1.386,4.564h4.263L445.789,238.631z"/>
</g>
<g>
	<path stroke="#FFFFFF" stroke-width="14" stroke-miterlimit="10" d="M176.374,143.791v48.854h37.792v-48.854h10.201v116.762
		h-10.201V205.81h-37.792v54.742h-10.202V143.791H176.374z"/>
	<path fill="#FFFFFF" stroke="#FFFFFF" stroke-width="14" stroke-miterlimit="10" d="M254.5,223.827l-8.115,36.728h-10.433
		L262.5,143.792h12.172l26.664,116.761h-10.781l-8.347-36.727L254.5,223.827L254.5,223.827z"/>
	<path stroke="#FFFFFF" stroke-width="14" stroke-miterlimit="10" d="M319.645,143.791v69.297c0,25.984,7.771,37.071,18.199,37.071
		c11.479,0,19.014-11.435,19.014-37.071v-69.297h10.201v68.258c0,35.858-12.637,50.411-29.562,50.411
		c-15.997,0-28.054-13.514-28.054-49.896v-68.972h10.202V143.791z"/>
	<path stroke="#FFFFFF" stroke-width="14" stroke-miterlimit="10" d="M383.279,242.191c4.521,4.33,11.014,7.621,17.969,7.621
		c10.318,0,16.346-7.967,16.346-19.924c0-10.74-4.174-17.146-14.723-23.039c-12.751-6.932-20.635-16.979-20.635-33.264
		c0-18.191,10.084-31.703,25.271-31.703c7.884,0,13.796,2.771,17.158,5.716l-2.783,12.3c-2.435-2.251-7.649-5.543-14.723-5.543
		c-10.665,0-14.722,9.527-14.722,17.497c0,10.915,4.752,16.286,15.533,22.522c13.217,7.793,19.819,17.146,19.819,34.301
		c0,18.016-8.813,33.779-27.242,33.779c-7.53,0-15.766-3.466-19.938-7.622L383.279,242.191z"/>
</g>
<g>
	<path stroke="#FFFFFF" stroke-width="5" stroke-miterlimit="10" d="M438.375,268.573v-15.79h2.016l4.519,7.986
		c1.024,1.854,1.865,3.492,2.52,5.134l0.063-0.022c-0.169-2.109-0.212-4.029-0.212-6.465v-6.631h1.725v15.791h-1.85l-4.491-8.016
		c-0.986-1.758-1.936-3.563-2.625-5.271l-0.063,0.021c0.104,1.99,0.127,3.891,0.127,6.516v6.748h-1.725L438.375,268.573
		L438.375,268.573z"/>
</g>
</svg>
